<?xml version="1.0" encoding="UTF-8" standalone="no"?>
<!-- Created with Inkscape (http://www.inkscape.org/) -->

<svg
   xmlns:dc="http://purl.org/dc/elements/1.1/"
   xmlns:cc="http://creativecommons.org/ns#"
   xmlns:rdf="http://www.w3.org/1999/02/22-rdf-syntax-ns#"
   xmlns:svg="http://www.w3.org/2000/svg"
   xmlns="http://www.w3.org/2000/svg"
   xmlns:sodipodi="http://sodipodi.sourceforge.net/DTD/sodipodi-0.dtd"
   xmlns:inkscape="http://www.inkscape.org/namespaces/inkscape"
   version="1.1"
   width="420"
   height="420"
   id="svg2"
   inkscape:version="0.48.5 r10040"
   sodipodi:docname="MOH4.svg">
  <title
     id="title3300">Ministry of Health, Myanmar</title>
  <metadata
     id="metadata3053">
    <rdf:RDF>
      <cc:Work
         rdf:about="">
        <dc:format>image/svg+xml</dc:format>
        <dc:type
           rdf:resource="http://purl.org/dc/dcmitype/StillImage" />
        <dc:title>Ministry of Health, Myanmar</dc:title>
        <dc:description>Ministry of Health, Myanmar</dc:description>
      </cc:Work>
    </rdf:RDF>
  </metadata>
  <sodipodi:namedview
     pagecolor="#ffffff"
     bordercolor="#666666"
     borderopacity="1"
     objecttolerance="10"
     gridtolerance="10"
     guidetolerance="10"
     inkscape:pageopacity="0"
     inkscape:pageshadow="2"
     inkscape:window-width="1366"
     inkscape:window-height="705"
     id="namedview3051"
     showgrid="false"
     showguides="true"
     inkscape:guide-bbox="true"
     inkscape:zoom="1.1238095"
     inkscape:cx="76.379815"
     inkscape:cy="210"
     inkscape:window-x="-8"
     inkscape:window-y="-8"
     inkscape:window-maximized="1"
     inkscape:current-layer="svg2" />
  <defs
     id="defs4" />
  <text
     x="183.65646"
     y="657.42719"
     id="text3003">574.61 px</text>
  <path
     inkscape:connector-curvature="0"
     style="color:#000000;fill:#ffffff;stroke:#000000;stroke-width:0.80000001;stroke-linecap:round;stroke-linejoin:round;stroke-miterlimit:4;stroke-opacity:1;stroke-dasharray:none;stroke-dashoffset:0;marker:none;visibility:visible;display:inline;overflow:visible;enable-background:accumulate"
     id="path13769"
     d="m 2.000012,209.99998 a 207.99999,207.99999 0 1 1 4.099e-4,0.41293" />
  <path
     inkscape:connector-curvature="0"
     style="color:#000000;fill:#f0cb3c;fill-opacity:1;stroke:#000000;stroke-width:3.00000024;stroke-linecap:round;stroke-linejoin:round;stroke-miterlimit:4;stroke-opacity:1;stroke-dasharray:none;stroke-dashoffset:0;marker:none;visibility:visible;display:inline;overflow:visible;enable-background:accumulate"
     id="path13767"
     d="m 9.000026,210 a 201,201 0 1 1 3.961e-4,0.39904" />
  <path
     inkscape:connector-curvature="0"
     style="color:#000000;fill:#ffffff;stroke:#000000;stroke-width:3;stroke-linecap:round;stroke-linejoin:round;stroke-miterlimit:4;stroke-opacity:1;stroke-dasharray:none;stroke-dashoffset:0;marker:none;visibility:visible;display:inline;overflow:visible;enable-background:accumulate"
     id="path13763"
     d="m 56.000019,210.00001 a 154,154 0 1 1 3.04e-4,0.30573" />
  <path
     inkscape:connector-curvature="0"
     style="color:#000000;fill:#fcf907;fill-opacity:1;stroke:#000000;stroke-width:0.80000001;stroke-linecap:round;stroke-linejoin:round;stroke-miterlimit:4;stroke-opacity:1;stroke-dasharray:none;stroke-dashoffset:0;marker:none;visibility:visible;display:inline;overflow:visible;enable-background:accumulate"
     id="path13765"
     d="m 61.878695,210 a 148.12132,148.12132 0 1 1 2.92e-4,0.29406" />
  <path
     inkscape:connector-curvature="0"
     style="color:#000000;fill:#ff0000;fill-opacity:1;fill-rule:nonzero;stroke:#000000;stroke-width:1.5;stroke-linecap:round;stroke-linejoin:round;stroke-miterlimit:4;stroke-opacity:1;stroke-dasharray:none;stroke-dashoffset:0;marker:none;visibility:visible;display:inline;overflow:visible;enable-background:accumulate"
     id="path13740"
     d="m 207.03573,245.97875 0.62882,27.00544 6.65997,-0.0169 0.076,-28.42367" />
  <path
     inkscape:connector-curvature="0"
     style="color:#000000;fill:#2da4df;fill-opacity:1;stroke:#000000;stroke-width:1;stroke-linecap:round;stroke-linejoin:round;stroke-miterlimit:4;stroke-opacity:1;stroke-dasharray:none;stroke-dashoffset:0;marker:none;visibility:visible;display:inline;overflow:visible;enable-background:accumulate"
     id="path4608"
     d="m 165.1873,159.96981 c -0.64423,-5.57807 9.29645,2.31526 4.55212,-5.52332 -1.90075,-5.48045 3.40978,-4.46272 5.70339,-5.37728 -0.40557,-8.1558 3.74418,-14.72947 3.28203,-22.74363 6.70178,3.00413 11.40448,-0.25804 12.25054,-6.58098 -0.35711,-7.21074 5.70102,-13.65709 5.6477,-20.956846 1.57111,-5.92514 14.42126,-14.62837 21.38981,-8.20887 -5.02235,-6.52937 1.6233,-10.52836 4.69613,-15.77272 7.67407,2.28349 6.57361,11.52103 13.05956,13.97715 1.81881,8.47947 4.23983,19.166836 -4.90418,24.623826 -5.96653,3.99984 -5.86209,14.87443 -2.70136,17.75022 5.60721,-2.7173 14.13507,-3.52847 11.84795,4.14715 -0.25237,7.82952 12.16021,8.30866 5.78653,15.80278 -2.3804,7.42442 9.85399,2.71424 9.41745,9.99553 0.99346,8.30798 17.82554,-4.15281 9.5468,5.06021 -2.00592,4.33635 -8.06973,6.67478 -9.10755,11.59456 -4.20025,-2.6678 -9.40367,3.16647 -11.54984,3.66769 -3.04664,5.46137 -17.91791,-1.03285 -14.14748,9.12766 1.39108,6.53585 -8.08422,7.40491 -1.90535,12.55915 3.19587,8.36472 9.16105,15.99841 13.62309,22.98484 -1.58055,2.15875 -2.72519,11.23293 -7.0792,14.50925 -0.67322,9.01573 12.77935,13.71851 10.60107,23.14745 -1.71754,9.00614 9.26429,17.68782 0.22529,25.87715 -5.12815,3.38128 -5.68735,11.12326 -9.99938,13.30152 -1.7629,-7.11095 6.87357,-14.95806 2.83691,-21.04996 0.31782,-7.41093 1.21295,-14.96435 -2.73144,-22.78476 -1.34535,-7.20858 -1.46339,-1.98331 -2.45835,-0.45315 -0.29273,-8.90095 -3.97904,-17.68818 -4.65248,-26.32382 -2.12431,-4.22635 2.49047,-10.56498 -4.14914,-11.74963 -0.7085,-3.66003 -5.84787,-13.42652 -4.80652,-4.49605 -0.0126,7.18782 -8.69853,3.99537 -7.56144,4.12117 -0.5107,4.6613 -7.37001,5.33218 -9.47084,10.37983 -2.95078,-3.16615 0.16828,-6.17651 -2.39868,-1.92443 -2.50714,2.50936 0.71881,-6.89319 -2.34537,-0.6557 -4.7338,5.04634 2.33301,-9.48741 -3.29126,-0.82271 -2.5502,2.48616 3.55482,-6.06072 -1.72936,-0.0345 1.79169,-3.80134 2.582,-9.63765 -1.32141,-2.77723 -6.93034,-3.08704 5.65907,-15.27741 0.83032,-21.92082 -2.50487,-3.87499 -4.54637,-16.45524 -6.35246,-15.81445 1.63557,10.06435 -10.20179,-6.81682 -1.21514,-1.28982 2.31802,-5.7638 -8.485,-12.27416 -9.02129,-8.71062 -1.22945,-3.86369 1.12379,-11.32966 -2.29689,-3.64218 -1.59526,-1.06577 -1.06482,-7.36067 -2.42593,-2.02644 -2.69667,-3.36914 -4.7687,-6.90052 -5.66819,-10.98671" />
  <path
     inkscape:connector-curvature="0"
     style="color:#000000;fill:#ff0000;fill-opacity:1;fill-rule:nonzero;stroke:#000000;stroke-width:1.5;stroke-linecap:round;stroke-linejoin:round;stroke-miterlimit:4;stroke-opacity:1;stroke-dasharray:none;stroke-dashoffset:0;marker:none;visibility:visible;display:inline;overflow:visible;enable-background:accumulate"
     id="path13736"
     d="m 214.59523,173.10743 -9.2429,2.8159 0.92395,38.49435 8.21399,-0.2595 0.10496,-41.05075 z" />
  <path
     inkscape:connector-curvature="0"
     style="color:#000000;fill:#ffffff;stroke:#000000;stroke-width:1.5;stroke-linecap:round;stroke-linejoin:round;stroke-miterlimit:4;stroke-opacity:1;stroke-dasharray:none;stroke-dashoffset:0;marker:none;visibility:visible;display:inline;overflow:visible;enable-background:accumulate"
     id="path13729"
     d="m 166.45434,181.85098 c 2.62506,2.85744 6.5625,6.56251 17.41587,1.00962 10.85336,-5.55288 8.12852,-15.48472 13.3774,-17.16346 7.9464,-2.54149 17.99794,-2.9051 22.31124,2.69879 10.50883,13.65322 -30.65315,20.49229 -30.67182,42.51756 -0.0161,19.24188 26.01592,25.42182 26.28125,35.55287 0.14008,5.44289 -16.01052,16.42407 -15.8288,24.28305 0.19361,8.37324 1.13015,10.34853 8.73513,16.23489 6.79066,5.25606 13.80294,4.80629 16.4886,14.51135 2.40303,-12.96765 -17.61728,-20.70236 -17.23868,-29.7889 0.25415,-6.09954 19.8461,-16.91407 20.62448,-24.95736 1.51443,-15.64904 -24.32098,-22.80307 -24.68217,-31.5811 -0.59881,-14.55294 51.21981,-30.8499 23.76442,-56.28606 -7.59362,-7.03514 -21.45432,-5.80528 -28.77403,-4.54327 -7.31972,1.26202 -16.15385,-1.76682 -19.4351,3.28126 -3.28125,5.04808 -15.06038,21.29982 -12.36779,24.23076 z" />
  <path
     inkscape:connector-curvature="0"
     style="color:#000000;fill:#ff0000;fill-opacity:1;fill-rule:nonzero;stroke:#000000;stroke-width:1.5;stroke-linecap:round;stroke-linejoin:round;stroke-miterlimit:4;stroke-opacity:1;stroke-dasharray:none;stroke-dashoffset:0;marker:none;visibility:visible;display:inline;overflow:visible;enable-background:accumulate"
     id="path12894"
     d="m 214.59523,176.29793 0.0923,-33.29792 c 3.56292,-1.84913 6,-5.58352 6,-9.875 0,-6.13355 -4.9602,-11.09375 -11.09375,-11.09375 -6.13355,0 -11.125,4.9602 -11.125,11.09375 l 0,0.0312 c 0.009,4.32031 2.51799,8.04611 6.125,9.875 l 0.79011,33.52317" />
  <path
     inkscape:connector-curvature="0"
     style="color:#000000;fill:#0a9f44;fill-opacity:1;stroke:#053f1d;stroke-width:1.5;stroke-linecap:round;stroke-linejoin:round;stroke-miterlimit:4;stroke-opacity:1;stroke-dasharray:none;stroke-dashoffset:0;marker:none;visibility:visible;display:inline;overflow:visible;enable-background:accumulate"
     id="path13684"
     d="m 260.19743,94.480214 c 32.82282,3.55248 47.36599,25.696516 49.61646,37.480056 -12.83324,-14.61137 -32.78433,-12.90398 -49.61646,-37.480056 z m 62.9409,61.967246 c -4.54646,-4.03645 -23.54578,-4.20753 -29.40298,-25.58271 9.16879,-0.94696 21.48249,13.70218 24.19683,18.76308 -1.89711,-5.89765 -8.35995,-21.10903 -3.54905,-27.08021 14.03648,12.91267 10.8188,26.10866 8.7552,33.89984 z m 11.27799,30.00112 c -1.92591,-7.57521 6.88587,-16.03952 -3.46183,-38.53881 -8.80103,8.44383 -4.10783,23.05766 -2.23669,28.9705 -3.1045,-5.69053 -11.85384,-17.18929 -19.91028,-16.57047 7.64447,23.77098 19.16519,21.3265 25.6088,26.13878 z m -3.66363,33.4488 c 3.58476,-6.68818 15.58947,-11.07397 17.23868,-35.46598 -9.90689,4.67451 -15.74007,17.17115 -16.23674,23.35307 -0.72947,-6.44111 -6.80945,-20.50462 -14.50448,-22.9695 -1.88371,24.89878 11.56808,27.65373 13.50254,35.08241 z m -12.3966,33.1391 c 6.27692,-4.95845 23.10553,-6.5521 30.08305,-33.12527 -11.68609,2.68571 -24.28473,17.70237 -26.13804,24.41733 0.58547,-7.30942 0.66322,-27.04923 -7.11478,-31.70739 -7.33855,27.07501 3.89106,31.99591 3.16977,40.41533 z m -18.28194,27.72769 c 6.28625,-4.52692 32.55596,-4.71879 40.65451,-28.69129 -12.67737,-1.06203 -29.70311,15.36714 -33.45614,21.043 2.62308,-6.61428 5.14292,-24.42966 -1.50895,-31.12641 -14.99541,22.92612 -2.62011,31.17027 -5.68942,38.7747 z m -25.32655,25.0171 c 9.23213,-2.65221 40.61137,-0.88299 53.00481,-20.69712 -15.60739,-3.2947 -38.36536,6.64661 -43.91827,13.125 4.29314,-7.82196 14.04845,-29.75438 6.81491,-39.12259 -22.22553,26.19329 -10.89898,37.71015 -15.90145,46.69471 z m -86.44832,34.95792 c 0,0 28.39555,-34.77929 53.38342,-34.70552 24.70664,0.0729 25.86701,8.26035 55.52885,5.04807 -26.2511,13.94669 -31.64524,13.01777 -56.28606,11.61058 -23.36937,-1.33458 -32.76297,4.46072 -50.98558,19.18269 l -1.64063,-1.13582 z" />
  <path
     inkscape:connector-curvature="0"
     style="color:#000000;fill:#ff0000;fill-opacity:1;fill-rule:nonzero;stroke:none;stroke-width:1.5;marker:none;visibility:visible;display:inline;overflow:visible;enable-background:accumulate"
     id="path13738"
     d="m 206.23271,212.41772 0.8541,35.56103 7.33319,-1.43516 0.0898,-34.13297" />
  <path
     inkscape:connector-curvature="0"
     style="color:#000000;fill:#ff0000;fill-opacity:1;fill-rule:nonzero;stroke:#000000;stroke-width:1.5;stroke-linecap:round;stroke-linejoin:round;stroke-miterlimit:4;stroke-opacity:1;stroke-dasharray:none;stroke-dashoffset:0;marker:none;visibility:visible;display:inline;overflow:visible;enable-background:accumulate"
     id="path13744"
     d="m 207.66455,270.98419 0.64797,29.82827 5.9375,0 0.0745,-29.8452" />
  <path
     inkscape:connector-curvature="0"
     style="color:#000000;fill:#ff0000;fill-opacity:1;fill-rule:nonzero;stroke:#000000;stroke-width:1.5;stroke-linecap:round;stroke-linejoin:round;stroke-miterlimit:4;stroke-opacity:1;stroke-dasharray:none;stroke-dashoffset:0;marker:none;visibility:visible;display:inline;overflow:visible;enable-background:accumulate"
     id="path13746"
     d="m 214.42,246.54359 0.0898,-34.13297 m -8.27709,0.007 0.8541,35.56103" />
  <path
     inkscape:connector-curvature="0"
     style="color:#000000;fill:#000000;fill-opacity:1;fill-rule:nonzero;stroke:none;stroke-width:1.5;marker:none;visibility:visible;display:inline;overflow:visible;enable-background:accumulate"
     id="path13748"
     d="m 176.96048,170.14168 c 0,0 1.23744,-7.24784 4.77298,-5.3033 3.53553,1.94455 -4.94975,5.65686 -4.77298,5.3033 z" />
  <path
     d="m 162.64268,95.370045 c -32.82282,3.55248 -47.36599,25.696515 -49.61646,37.480055 12.83324,-14.61137 32.78433,-12.90398 49.61646,-37.480055 z M 99.701783,157.33729 c 4.546457,-4.03645 23.545777,-4.20753 29.402977,-25.58271 -9.16879,-0.94696 -21.48249,13.70218 -24.19683,18.76308 1.89711,-5.89765 8.35995,-21.10903 3.54905,-27.08021 -14.036477,12.91267 -10.818797,26.10866 -8.755197,33.89984 z m -11.27799,30.00112 c 1.92591,-7.57521 -6.88587,-16.03952 3.46183,-38.53881 8.801027,8.44383 4.10783,23.05766 2.23669,28.9705 3.1045,-5.69053 11.853837,-17.18929 19.910277,-16.57047 -7.64447,23.77098 -19.165187,21.3265 -25.608797,26.13878 z m 3.66363,33.4488 c -3.58476,-6.68818 -15.58947,-11.07397 -17.23868,-35.46598 9.90689,4.67451 15.74007,17.17115 16.23674,23.35307 0.72947,-6.44111 6.80945,-20.50462 14.504477,-22.9695 1.88371,24.89878 -11.568077,27.65373 -13.502537,35.08241 z m 12.396597,33.1391 c -6.276917,-4.95845 -23.105527,-6.5521 -30.083047,-33.12527 11.68609,2.68571 24.28473,17.70237 26.138037,24.41733 -0.585467,-7.30942 -0.663217,-27.04923 7.11478,-31.70739 7.33855,27.07501 -3.89106,31.99591 -3.16977,40.41533 z m 18.28194,27.72769 c -6.28625,-4.52692 -32.555957,-4.71879 -40.654507,-28.69129 12.67737,-1.06203 29.703107,15.36714 33.456137,21.043 -2.62308,-6.61428 -5.14292,-24.42966 1.50895,-31.12641 14.99541,22.92612 2.62011,31.17027 5.68942,38.7747 z m 25.32655,25.0171 c -9.23213,-2.65221 -40.61137,-0.88299 -53.004807,-20.69712 15.607387,-3.2947 38.365357,6.64661 43.918267,13.125 -4.29314,-7.82196 -14.04845,-29.75438 -6.81491,-39.12259 22.22553,26.19329 10.89898,37.71015 15.90145,46.69471 z m 86.44832,34.95792 c 0,0 -28.39555,-34.77929 -53.38342,-34.70552 -24.70664,0.0729 -25.86701,8.26035 -55.52885,5.04807 26.2511,13.94669 31.64524,13.01777 56.28606,11.61058 23.36937,-1.33458 32.76297,4.46072 50.98558,19.18269 l 1.64063,-1.13582 z"
     id="path3166"
     style="color:#000000;fill:#0a9f44;fill-opacity:1;stroke:#053f1d;stroke-width:1.5;stroke-linecap:round;stroke-linejoin:round;stroke-miterlimit:4;stroke-opacity:1;stroke-dasharray:none;stroke-dashoffset:0;marker:none;visibility:visible;display:inline;overflow:visible;enable-background:accumulate"
     inkscape:connector-curvature="0" />
  <path
     inkscape:connector-curvature="0"
     style="color:#000000;fill:#000000;fill-opacity:1;fill-rule:nonzero;stroke:none;stroke-width:1.5;marker:none;visibility:visible;display:inline;overflow:visible;enable-background:accumulate"
     id="path13750"
     d="m 171.53586,184.40514 c 0,0 -4.41942,4.77297 -4.59619,6.71752 -0.17678,1.94454 -1.7356,3.32842 -1.7356,3.32842 l -0.5625,-2.97487 -2.47488,1.23744 c 0,0 0.88389,-2.65165 2.82843,-3.18198 1.94455,-0.53033 5.12653,-6.01041 5.12653,-6.01041" />
  <g
     id="g3105"
     transform="matrix(0.63768836,0,0,0.63768836,92.795365,15.747132)">
    <g
       id="#ffffffff" />
    <g
       id="#000000ff">
      <path
         id="path3059"
         d="m 228.55,14.31 c -3.07,-5.91 1.86,-13.6 8.43,-13.57 4.24,0.35 6.91,4.09 8.59,7.6 -1.3,0.37 -2.6,0.71 -3.9,1.05 -1.15,-2.08 -2.82,-4.82 -5.63,-4.34 -2.67,0.2 -3.94,2.77 -4.8,4.95 0.7,1.94 1.87,3.63 3.33,5.08 0.82,-0.05 2.46,-0.13 3.27,-0.17 0.25,1.39 0.51,2.78 0.78,4.17 -3.9,0.44 -8.39,-0.92 -10.07,-4.77 z"
         inkscape:connector-curvature="0"
         style="fill:#000000" />
      <path
         id="path3061"
         d="m 250.66,12.02 c 0.57,-3.66 4.71,-6.09 8.24,-5.34 7.21,1.3 14.38,2.87 21.55,4.38 -0.21,1.43 -0.41,2.85 -0.6,4.28 -6.94,-1.37 -13.87,-2.83 -20.81,-4.16 -2.4,-0.51 -4.31,1.76 -4.56,3.97 -2.77,13.93 -5.59,27.86 -8.35,41.79 -0.78,2.45 0.87,4.88 3.33,5.32 5.46,1.32 11.04,2.12 16.53,3.33 5.06,0.87 10.03,2.39 15.19,2.54 3.22,-3.68 3.18,-8.76 4.12,-13.3 -3.56,0.65 -7.25,0.62 -10.63,-0.76 0.33,-1.3 0.67,-2.6 1.03,-3.9 3.6,1.1 8.16,1.61 10.91,-1.56 3.76,-3.71 1.2,-10.61 -3.73,-11.7 -2.55,-1 -5.11,0.12 -7.4,1.23 0.53,7.21 -6.03,11.99 -12.48,13.07 0,-1.39 -0.01,-2.78 0,-4.16 3.61,-1.29 8.08,-3.57 8.03,-8.02 0.22,-5.9 -7.39,-9.67 -12.05,-6.05 -4.98,2.84 -3.25,9.9 0.45,13.12 -0.7,1.14 -1.4,2.28 -2.11,3.41 -3.49,-3.1 -6.66,-7.49 -5.65,-12.42 0.51,-6.69 8.01,-11.05 14.23,-9.3 3.68,0.42 6.3,3.27 8.35,6.1 6.57,-3.51 16.13,-0.38 18.06,7.14 1.31,3.55 -0.56,7.06 -1.76,10.33 -1.27,4.89 -1.98,9.91 -3.08,14.84 -0.43,3.93 -4.61,6.45 -8.23,6.75 -10.6,-2.06 -21.17,-4.3 -31.76,-6.39 -4.26,-0.6 -6.95,-5.47 -5.78,-9.48 3,-15.02 5.88,-30.06 8.96,-45.06 z"
         inkscape:connector-curvature="0"
         style="fill:#000000" />
      <path
         id="path3063"
         d="m 286.4,13.51 c 6.8,-2.21 13.73,5.98 10.49,12.4 -2.43,5.94 -11.21,7.4 -15.26,2.37 -4.45,-4.8 -1.66,-13.49 4.77,-14.77 m -3.27,7.05 c 3.91,0.05 7.42,1.72 10.55,3.93 0.83,-3.07 -0.4,-7.01 -3.87,-7.67 -2.93,-1.04 -5.03,1.8 -6.68,3.74 m 0.69,4.28 c 1.61,1.86 3.97,2.49 6.34,2.73 -1.62,-1.84 -3.89,-2.79 -6.34,-2.73 z"
         inkscape:connector-curvature="0"
         style="fill:#000000" />
      <path
         id="path3065"
         d="m 159.74,21.79 c 4.24,-4.63 12.38,-4.79 16.6,-0.04 3.22,3.28 3.69,8.19 3.67,12.55 1.15,-2.68 3.58,-3.99 6.46,-3.52 0.89,0.93 1.77,1.87 2.67,2.8 0.18,2.57 0.09,5.9 -2.74,7 -2.76,1.69 -5.18,-1.2 -6.41,-3.4 0.34,5.94 1.17,11.86 1.1,17.82 0.73,0 2.19,0 2.92,0 0.11,1.39 0.22,2.78 0.33,4.18 -2.43,0.15 -4.85,0.37 -7.28,0.48 0.08,-8.56 -1.23,-17.04 -1.24,-25.59 0.07,-3.87 -0.73,-8.41 -4.51,-10.38 -3.92,-2.67 -8.52,0.52 -10.59,4 3.31,0.97 7.05,1.42 9.6,3.99 2.39,2.13 3.59,5.17 4.64,8.11 -4.31,3.23 -11.13,3.4 -14.79,-0.93 -4.64,-4.37 -4.88,-12.48 -0.43,-17.07 m 0.86,10.64 c 1.73,3.47 5.14,5.68 9.05,5.52 -1.64,-3.5 -5.29,-5.35 -9.05,-5.52 m 23.54,2.74 c -1.33,3 3.34,-0.12 0,0 z"
         inkscape:connector-curvature="0"
         style="fill:#000000" />
      <path
         id="path3067"
         d="m 182.41,18.37 c 1.65,-1.01 4.23,-0.98 5.55,0.57 2.9,2.9 1.29,8.9 -3.1,9.1 -4.62,-0.37 -6.09,-7.06 -2.45,-9.67 z"
         inkscape:connector-curvature="0"
         style="fill:#000000" />
      <path
         id="path3069"
         d="m 201.42,19.31 c 7.58,-3.55 17.04,3.26 16.06,11.55 -0.17,8.52 -11.31,13.77 -18.11,8.71 -7.4,-4.57 -6.18,-17.28 2.05,-20.26 m 1.11,4.01 c -5.37,2.61 -5.2,11.41 0.49,13.52 5.33,2.7 12.13,-3.17 10.04,-8.78 -1.03,-4.46 -6.49,-6.93 -10.53,-4.74 z"
         inkscape:connector-curvature="0"
         style="fill:#000000" />
      <path
         id="path3071"
         d="m 130.11,27.03 c 2.67,-5.08 9.62,-7.66 14.79,-4.91 2.17,0.94 3.71,2.79 5.32,4.43 -1.15,0.85 -2.29,1.71 -3.43,2.57 -1.41,-1.49 -2.76,-3.24 -4.79,-3.9 -3.59,-0.86 -7.57,1.23 -8.9,4.67 -0.3,2.1 -0.09,4.24 0.34,6.3 3.22,-2.13 6.74,-3.64 10.59,-4.19 2.47,0.56 4.93,1.23 7.28,2.18 -0.26,7.71 -9.71,12.52 -16.25,8.8 -5.7,-2.75 -8.06,-10.48 -4.95,-15.95 m 6.32,12.34 c 3.53,1.39 7.85,0.63 9.71,-2.91 -3.54,-0.73 -6.95,0.78 -9.71,2.91 z"
         inkscape:connector-curvature="0"
         style="fill:#000000" />
      <path
         id="path3073"
         d="m 227.36,22.92 c 4.39,-2.67 10.05,-1.58 13.61,1.96 -0.72,1.08 -1.44,2.16 -2.16,3.25 -2.68,-1.69 -5.96,-3.26 -9.1,-1.79 3.05,2.69 7.53,2.74 10.45,5.64 3.55,2.86 3.01,8.96 -0.58,11.54 -1.91,1.11 -4.14,1.41 -6.26,1.88 -0.67,5.31 -1.54,10.6 -2.43,15.88 -1.36,-0.19 -2.72,-0.39 -4.08,-0.59 0.88,-5.27 1.65,-10.56 2.32,-15.86 -2.84,-1.1 -6.03,-2.39 -7.42,-5.32 -1.66,-2.48 -0.39,-5.74 1.76,-7.46 3.11,-0.8 6.9,-0.25 9.09,2.29 1.56,1.99 1.44,4.62 1.73,7 1.25,-0.72 2.48,-1.48 3.7,-2.27 0,-0.78 0.02,-2.36 0.02,-3.15 -3.65,-3.33 -9.54,-3.55 -12.07,-8.14 0.02,-0.58 0.06,-1.74 0.08,-2.32 0.34,-0.63 1.01,-1.9 1.34,-2.54 m -2.64,13.78 c 1.46,1.84 3.32,3.3 5.64,3.84 -0.07,-3 -2.57,-5.87 -5.64,-3.84 z"
         inkscape:connector-curvature="0"
         style="fill:#000000" />
      <path
         id="path3075"
         d="m 109.67,26.78 c 4.71,-1.62 10.37,0.4 13.13,4.51 3.24,5.15 2.32,13.05 -3.24,16.24 -2.59,1.83 -5.79,1.76 -8.8,1.55 0.42,-1.37 -0.3,-4.37 2.04,-3.83 5.23,0.63 9.91,-5.75 7.34,-10.45 -1.56,-3.17 -5.48,-5.25 -8.92,-4.04 -3.37,0.58 -4.92,4 -5.67,6.96 -1.09,-0.27 -2.19,-0.54 -3.28,-0.81 1.38,3.45 2.68,7.42 0.93,11 -2.06,6 -9.6,8.92 -15.27,6.32 -5.17,-2.07 -8.35,-8.37 -6.48,-13.7 0.7,-2.62 2.25,-4.87 3.82,-7.03 0.85,0.99 1.69,1.99 2.53,2.99 -2.5,3.11 -3.62,7.13 -2.03,10.93 4.16,-3.12 9.3,-5.08 14.57,-4.32 -0.97,-3.98 -4.15,-6.45 -7.77,-7.91 -0.07,-0.97 -0.19,-2.9 -0.25,-3.87 3.61,0.76 6.86,2.65 9.32,5.4 1.19,-4.14 3.49,-8.79 8.03,-9.94 M 88.86,50.46 c 3.94,1.44 8.15,0.14 10.48,-3.35 -3.83,-0.5 -7.81,0.42 -10.48,3.35 z"
         inkscape:connector-curvature="0"
         style="fill:#000000" />
      <path
         id="path3077"
         d="m 44.42,27.29 c 3.69,-1.54 7.54,0.18 10.76,1.99 -0.92,0.94 -1.81,1.92 -2.82,2.76 -2.61,-0.95 -6.66,-2.38 -8.18,0.95 -2.28,2.87 0.24,6.92 3.42,7.64 1.75,0.66 3.11,-1 4.56,-1.67 0.93,0.96 1.87,1.93 2.8,2.9 -3.44,3.31 -9.52,3.95 -12.88,0.2 -4.26,-4.11 -3.09,-12.23 2.34,-14.77 z"
         inkscape:connector-curvature="0"
         style="fill:#000000" />
      <path
         id="path3079"
         d="m 296.03,40.88 c 1.21,-2.07 3.72,-2.02 5.81,-2.06 3.13,2.28 3.33,7.62 -0.32,9.48 -1.68,1.39 -3.69,0.19 -5.44,-0.33 -1.04,-2.2 -1.93,-5.04 -0.05,-7.09 m 3.02,2.3 c -1.36,2.98 3.33,-0.07 0,0 z"
         inkscape:connector-curvature="0"
         style="fill:#000000" />
      <path
         id="path3081"
         d="m 67.34,40.04 c 3.75,-2.2 8.33,1.96 7.1,5.95 -0.14,2.52 -3.21,4.22 -5.46,3.24 -4.05,-0.81 -4.89,-6.96 -1.64,-9.19 m 1.83,4.18 c 0.71,3.25 2.58,-2.06 0,0 z"
         inkscape:connector-curvature="0"
         style="fill:#000000" />
      <path
         id="path3083"
         d="m 49.1,49.07 c 2.58,-3.26 7.05,-3.99 10.95,-3.36 0.01,1.25 0.02,2.51 0.04,3.76 -3.25,-0.02 -6.66,0.73 -8.68,3.5 4.62,0.51 9.3,-2.39 13.79,-0.36 3.02,0.95 4.22,4.28 4.33,7.17 -0.07,3.12 -2.63,5.15 -4.59,7.23 2.21,4.89 4.45,9.75 6.59,14.66 -1.27,0.55 -2.53,1.1 -3.8,1.65 -2.14,-4.79 -4.43,-9.51 -6.53,-14.31 -3.37,0.04 -7.3,1.15 -10.17,-1.16 -2.47,-1.9 -2.99,-6.2 -0.3,-8.15 2.13,-1.39 4.8,-2.23 7.35,-1.63 2.29,0.79 3.61,2.95 4.89,4.85 0.5,-0.57 1.5,-1.73 2,-2.31 0.01,-0.75 0.04,-2.26 0.06,-3.01 -4.23,-3.07 -9.3,0.65 -13.94,-0.57 -3.42,-0.77 -4.38,-5.59 -1.99,-7.96 m 4.13,14.97 c 1.62,1.69 4.22,0.68 6.27,0.86 -1.29,-2.41 -4.85,-4.32 -6.27,-0.86 z"
         inkscape:connector-curvature="0"
         style="fill:#000000" />
      <path
         id="path3085"
         d="m 305.77,63.19 c -3.48,-7.6 3.49,-17.94 12.05,-16.48 5.87,0.28 9.7,5.85 10.46,11.24 -1.41,0.03 -2.83,0.05 -4.23,0.07 -0.83,-2.8 -2.15,-5.89 -5.19,-6.83 -6.12,-1.81 -12.56,6.08 -8.52,11.47 2.36,4.51 8.13,3.87 11.81,1.49 0.29,1.48 1.56,3.04 0.76,4.55 -2.24,5.06 -4.53,10.12 -7.07,15.05 -1.52,3.15 -5.68,5.47 -8.96,3.47 -3.41,-1.83 -7.86,-2.61 -10.08,-6.04 -2.06,-2.75 0.56,-5.81 1.76,-8.31 3.01,-1.31 5.9,0.24 8.62,1.49 -0.53,1.25 -1.08,2.49 -1.59,3.74 -1.63,-0.52 -3.27,-1.01 -4.93,-1.41 -0.24,3.59 3.45,4.33 5.95,5.61 1.57,0.61 3.38,1.66 4.99,0.52 2.64,-3.81 4.14,-8.26 6.16,-12.4 -5.01,0.35 -10.3,-2.3 -11.99,-7.23 z"
         inkscape:connector-curvature="0"
         style="fill:#000000" />
      <path
         id="path3087"
         d="m 293.36,50.95 c 1.19,0 2.38,0.01 3.57,0.01 2.55,1.89 3.66,5.85 1.3,8.31 -1.12,1.42 -2.95,1.68 -4.6,1.99 -0.66,-0.48 -1.97,-1.44 -2.63,-1.92 -1.75,-3.06 -0.36,-6.47 2.36,-8.39 z"
         inkscape:connector-curvature="0"
         style="fill:#000000" />
      <path
         id="path3089"
         d="m 72.15,52.08 c 3.76,-1.78 8.03,1.95 7.05,5.9 -0.18,4 -6.08,4.87 -8.07,1.75 -2.06,-2.21 -1.44,-5.99 1.02,-7.65 m 2.03,3.84 c -1.89,2.73 3.24,0.57 0,0 z"
         inkscape:connector-curvature="0"
         style="fill:#000000" />
      <path
         id="path3091"
         d="m 33.76,55.52 c 1.15,-0.56 2.3,-1.13 3.45,-1.7 6.12,11.94 12.45,23.77 18.54,35.73 -0.69,1.04 -1.37,2.08 -2.04,3.13 -3.52,-0.88 -7,-1.9 -10.51,-2.82 -1.36,-2.84 -2.78,-5.65 -4.19,-8.46 1.14,-0.5 2.28,-1.01 3.42,-1.52 1.03,1.99 2.07,3.97 3.09,5.95 1.49,0.52 2.98,1 4.49,1.43 C 44.79,76.58 39.22,66.08 33.76,55.52 z"
         inkscape:connector-curvature="0"
         style="fill:#000000" />
      <path
         id="path3093"
         d="m 328.08,59.75 c 4.15,-3.35 10.65,-4.43 15.05,-0.95 5.19,3.82 5.95,12.05 1.64,16.83 -4.41,5.72 -14.09,5.09 -18.02,-0.87 0.95,-0.82 1.91,-1.65 2.86,-2.48 2.22,2.59 5.92,4.16 9.23,2.7 3.05,-0.87 4.3,-4 5.09,-6.76 -0.69,-4.13 -3.81,-7.32 -7.99,-7.9 -1.9,0.73 -3.74,1.58 -5.55,2.49 -0.77,-1.02 -1.54,-2.04 -2.31,-3.06 z"
         inkscape:connector-curvature="0"
         style="fill:#000000" />
      <path
         id="path3095"
         d="m 20.35,63.22 c 5.18,-4.13 14.54,-3.5 17.51,3.02 3.51,6.37 -0.24,14.71 -6.85,17.24 -0.71,-1.11 -1.42,-2.23 -2.13,-3.34 3.06,-2.12 6.73,-4.98 6.09,-9.2 -0.35,-6.14 -9.09,-8.15 -12.78,-3.75 -1.55,1.3 -1.98,3.33 -2.44,5.2 1.57,1.73 3.34,3.44 3.92,5.79 1.31,4.17 -0.68,8.34 -2.53,12 -1.06,-0.91 -2.11,-1.83 -3.17,-2.74 0.92,-2.75 2.71,-5.82 1.15,-8.68 -0.82,-2.65 -3.52,-4.21 -6.14,-4.54 -4.64,-0.25 -8.9,4.21 -8.01,8.89 0.1,4.9 5.79,6.74 9.91,6.43 0.44,1.23 0.89,2.46 1.34,3.69 C 11.47,93.97 5.8,93.32 2.78,89.12 0.17,86.18 0.05,81.88 1.1,78.27 3.11,72.63 9.75,68.82 15.59,70.5 c 1.1,-2.7 2.25,-5.58 4.76,-7.28 z"
         inkscape:connector-curvature="0"
         style="fill:#000000" />
      <path
         id="path3097"
         d="m 355.77,75.84 c -0.52,-3.97 4.55,-6.01 7.67,-4.34 3.47,0.99 5.36,4.15 7.02,7.09 -1.16,0.66 -2.32,1.32 -3.48,1.98 -1.61,-2.72 -4,-4.83 -6.98,-5.9 0.27,1.3 0.37,2.78 1.59,3.6 3.13,2.83 6.39,6.78 5.34,11.32 -0.97,2.26 -2.68,4.36 -5.11,5.09 -2.38,0.91 -4.81,-0.28 -7.14,-0.78 -2.99,4.49 -6.05,8.93 -9.03,13.44 -1.13,-0.81 -2.25,-1.61 -3.36,-2.42 2.89,-4.42 5.78,-8.85 8.73,-13.23 -2.73,-2.76 -5.38,-6.56 -3.99,-10.63 0.98,-2.69 3.96,-3.39 6.52,-3.27 1.92,1.68 4.38,3.16 5.08,5.8 0.89,2.21 -0.78,4.35 -1.46,6.39 0.9,0.31 1.81,0.62 2.72,0.94 1.14,-0.89 2.26,-1.83 3.35,-2.8 -1.46,-4.74 -6.91,-7.29 -7.47,-12.28 m -1.73,12.33 c 0.89,-2.8 0.13,-5.25 -2.57,-6.59 -1.14,2.7 0.44,5 2.57,6.59 z"
         inkscape:connector-curvature="0"
         style="fill:#000000" />
    </g>
  </g>
  <g
     id="g3249"
     transform="matrix(0.60315076,0,0,0.60315076,23.555375,113.45234)">
    <g
       id="#ffffffff-1" />
    <g
       id="#111111ff">
      <path
         id="path3153"
         d="m 574.49,0 0.12,0 c 0.72,1.47 1.44,2.93 2.18,4.4 -2.22,4.23 -4.94,8.26 -6.51,12.8 -0.47,3.13 1.9,5.78 3.15,8.47 3.91,-1.85 7.53,-4.25 11.51,-5.97 0.7,1.07 1.37,2.15 2.02,3.26 -8.68,4.78 -17.44,9.41 -26.12,14.19 -2.63,-5.12 -5.86,-9.96 -7.95,-15.33 -1.89,-4.46 1.51,-9.69 6.17,-10.31 3.31,-0.76 6.12,1.51 8.51,3.47 C 568.35,9.4 571.92,4.85 574.49,0 m -18.33,20.81 c 1.37,3.98 3.8,7.48 5.71,11.21 2.78,-1.54 5.57,-3.05 8.4,-4.48 -2.42,-4.37 -3.84,-10.13 -8.82,-12.26 -2.74,0.38 -6.08,2.27 -5.29,5.53 z"
         inkscape:connector-curvature="0"
         style="fill:#111111" />
      <path
         id="path3155"
         d="m 41.98,4.83 c 0.57,-1.11 1.2,-2.17 1.82,-3.25 8.77,4.58 17.38,9.46 26.24,13.85 -0.97,1.76 -1.92,3.52 -2.87,5.29 -8.68,-1.34 -17.32,-2.92 -25.99,-4.34 5.96,6.43 11.72,13.06 17.98,19.2 -0.79,1.66 -1.47,3.41 -2.72,4.8 -8.68,-4.44 -17.17,-9.23 -25.85,-13.67 0.51,-1.24 1.04,-2.47 1.56,-3.7 6.96,3.83 13.94,7.69 21.09,11.16 -5.52,-6.24 -11.22,-12.33 -16.91,-18.43 0.5,-1.04 1,-2.07 1.5,-3.11 8.45,1.03 16.83,2.63 25.22,4.02 C 56.46,12.02 48.82,9.09 41.98,4.83 z"
         inkscape:connector-curvature="0"
         style="fill:#111111" />
      <path
         id="path3157"
         d="m 565.43,47.62 c 7.61,-7.39 14.81,-15.17 22.29,-22.68 0.68,1.32 1.33,2.65 1.98,3.99 -2.13,2.45 -4.95,4.39 -6.68,7.11 1.58,3.64 2.84,7.55 4.89,10.9 3.12,0.14 6.24,-0.16 9.36,-0.3 0.5,1.21 1.01,2.42 1.52,3.63 -10.54,0.91 -21.12,0.57 -31.65,1.4 -0.59,-1.34 -1.16,-2.69 -1.71,-4.05 m 4.43,0.49 c 4.75,-0.26 9.5,-0.47 14.25,-0.78 -1.06,-3.12 -2.5,-6.09 -3.75,-9.13 -3.45,3.35 -6.94,6.67 -10.5,9.91 z"
         inkscape:connector-curvature="0"
         style="fill:#111111" />
      <path
         id="path3159"
         d="m 28.18,31.94 c 8.93,4.31 18.11,8.08 27.12,12.22 -0.5,1.22 -0.99,2.44 -1.48,3.67 -9.08,-3.99 -18.12,-8.04 -27.18,-12.06 0.52,-1.28 1.04,-2.55 1.54,-3.83 z"
         inkscape:connector-curvature="0"
         style="fill:#111111" />
      <path
         id="path3161"
         d="m 23.87,41.54 c 9.36,3.18 18.56,6.83 27.9,10.1 -0.66,1.25 -0.61,3.08 -1.82,3.97 -8.71,2.28 -17.6,3.97 -26.22,6.59 7.11,2.69 14.25,5.3 21.39,7.92 -0.51,1.19 -1,2.38 -1.49,3.57 -9.11,-3.46 -18.29,-6.73 -27.42,-10.14 -0.45,-1.28 0.75,-2.57 0.91,-3.83 8.9,-2.36 17.91,-4.27 26.82,-6.59 -6.61,-3.08 -13.7,-4.99 -20.4,-7.84 -1.59,-0.65 0.22,-2.64 0.33,-3.75 z"
         inkscape:connector-curvature="0"
         style="fill:#111111" />
      <path
         id="path3163"
         d="m 571.35,61.23 c 9.57,-2.8 18.92,-6.33 28.58,-8.81 0.14,0.86 0.42,2.6 0.56,3.47 -6.45,2.33 -13.05,4.22 -19.58,6.33 -0.86,0.41 -2.16,0.47 -2.61,1.42 8.32,0.08 16.65,0.39 24.98,0.33 0.39,1.2 0.75,2.41 1.12,3.63 -6.83,5.07 -13.83,9.91 -20.42,15.28 7.68,-2.27 15.27,-4.87 22.93,-7.21 0.47,1.15 0.94,2.3 1.4,3.46 -9.38,3.2 -18.88,6.07 -28.33,9.1 -0.67,-1.88 -1.26,-3.8 -1.86,-5.69 7.1,-5.12 14.18,-10.27 21.19,-15.51 -8.78,-0.06 -17.54,-0.79 -26.32,-0.75 -0.6,-1.67 -1.13,-3.36 -1.64,-5.05 z"
         inkscape:connector-curvature="0"
         style="fill:#111111" />
      <path
         id="path3165"
         d="m 14.18,68.8 c 9.51,2.75 18.94,5.77 28.48,8.4 -0.27,1.33 -0.54,2.66 -0.79,4 -9.47,-2.79 -18.9,-5.76 -28.41,-8.39 0.24,-1.34 0.48,-2.67 0.72,-4.01 z"
         inkscape:connector-curvature="0"
         style="fill:#111111" />
      <path
         id="path3167"
         d="m 10.7,83.73 c 2.14,-3.48 6.62,-4.95 10.5,-3.99 -0.32,1.13 -0.63,2.26 -0.95,3.39 -5.75,-0.63 -8.42,5.18 -9.14,9.92 0.45,2.71 1.93,4.92 4.57,5.92 5.1,-1.19 5.93,-7.04 8.5,-10.81 1.56,-3.16 5.1,-5.66 8.72,-4.52 3.97,0.59 5.83,4.73 6.14,8.32 -0.49,4.03 -1.53,8.5 -4.96,11.07 -1.85,1.58 -4.43,1.4 -6.7,1.69 0.12,-0.92 0.35,-2.75 0.47,-3.66 5.95,0.28 8.83,-6.88 6.9,-11.73 -1.01,-1.53 -3.36,-3.26 -5,-1.57 -4.12,3.49 -4.54,9.7 -8.78,13.15 -3.49,3.05 -9.52,1.72 -11.68,-2.31 C 6.6,93.96 8.03,88.05 10.7,83.73 z"
         inkscape:connector-curvature="0"
         style="fill:#111111" />
      <path
         id="path3169"
         d="m 580.37,90.31 c 9.49,-2.63 19.3,-4.02 28.86,-6.43 0.3,1.38 0.93,2.73 0.78,4.18 -6.17,6.69 -12.87,12.93 -18.95,19.72 7.44,-1.46 14.84,-3.14 22.27,-4.63 0.3,1.23 0.6,2.46 0.89,3.69 -9.72,2.01 -19.44,4.02 -29.12,6.23 -0.23,-1.33 -0.48,-2.66 -0.73,-3.99 6.17,-6.83 12.93,-13.09 19.01,-20 -7.44,1.6 -14.9,3.13 -22.33,4.77 -0.17,-0.88 -0.51,-2.65 -0.68,-3.54 z"
         inkscape:connector-curvature="0"
         style="fill:#111111" />
      <path
         id="path3171"
         d="m 31.9,106.34 c 0.82,0.16 2.47,0.49 3.3,0.65 -0.94,7.72 -2.34,15.38 -3.29,23.09 -0.84,-0.04 -2.52,-0.13 -3.35,-0.17 0.21,-3.3 0.55,-6.6 1.31,-9.82 -8.6,-1.76 -17.39,-2.44 -26,-4.13 0.19,-1.26 0.38,-2.5 0.57,-3.75 8.61,1.27 17.24,2.38 25.81,3.87 0.66,-3.23 0.95,-6.52 1.65,-9.74 z"
         inkscape:connector-curvature="0"
         style="fill:#111111" />
      <path
         id="path3173"
         d="m 587.83,123.66 c 8.94,-4.92 17.8,-10.01 26.83,-14.77 0.18,1.45 0.34,2.9 0.5,4.36 -2.82,1.58 -5.7,3.07 -8.53,4.62 0.47,4.04 0.83,8.1 1.51,12.12 2.98,0.85 6.01,1.58 9.06,2.16 0.24,1.43 0.49,2.86 0.74,4.29 -10.31,-2.52 -20.55,-5.36 -30.91,-7.72 0.2,-1.62 -1.24,-4.21 0.8,-5.06 m 2.39,2.65 c 4.98,0.33 9.68,2.11 14.6,2.81 -0.6,-3.17 -0.92,-6.38 -1.23,-9.59 -4.54,2.1 -8.91,4.53 -13.37,6.78 z"
         inkscape:connector-curvature="0"
         style="fill:#111111" />
      <path
         id="path3175"
         d="m 2.01,129.38 c 9.89,0.52 19.76,1.46 29.67,1.64 -0.81,6.3 0.13,12.83 -1.74,18.95 -1.48,4.17 -6.8,5.13 -10.56,3.78 -2.98,-1.39 -4.45,-4.59 -4.65,-7.74 -3.55,4.52 -9.15,6.5 -13.95,9.35 -0.07,-1.67 -0.06,-3.34 0.05,-5 4.08,-1.95 8.12,-4.09 11.73,-6.84 2.9,-2.24 2.31,-6.21 2.43,-9.43 -4.38,0.04 -8.71,-0.52 -13.06,-0.9 0.02,-0.95 0.06,-2.86 0.08,-3.81 m 16.38,4.88 c -0.23,4.22 -0.67,8.49 -0.18,12.7 0.98,3.73 7.08,4.56 8.59,0.8 1.69,-3.98 0.98,-8.46 1.2,-12.66 -3.19,-0.38 -6.4,-0.68 -9.61,-0.84 z"
         inkscape:connector-curvature="0"
         style="fill:#111111" />
      <path
         id="path3177"
         d="m 587.94,133.55 c 5.92,3.42 11.5,7.38 17.42,10.8 4.29,0.34 8.57,-0.62 12.88,-0.39 -0.02,1.34 -0.04,2.69 -0.04,4.04 -4.05,0.09 -8.11,0 -12.13,0.41 -5.53,3.39 -10.46,7.73 -15.88,11.3 9.22,1.26 18.54,1.05 27.8,1.77 0.01,0.94 0.04,2.81 0.05,3.74 -7.78,0.12 -15.5,-1.26 -23.28,-0.99 7.73,3.54 15.73,6.46 23.55,9.81 -0.38,1.18 0.33,3.44 -1.4,3.7 -7.77,2.5 -16.01,3.77 -23.46,7.11 7.98,-0.14 15.88,1.08 23.85,1.12 -0.07,0.96 -0.21,2.89 -0.28,3.85 -6.55,-0.71 -13.15,-0.59 -19.7,-1.08 -3.22,-0.26 -6.43,-0.48 -9.65,-0.63 0.07,-1.99 0.17,-3.97 0.31,-5.95 8.46,-2.04 16.75,-4.78 25.24,-6.72 -7.71,-3.79 -15.93,-6.47 -23.78,-9.96 -1.18,-2.93 -0.16,-6.54 -0.52,-9.72 4.36,-3.21 8.75,-6.39 13.26,-9.39 -4.81,-2.66 -9.52,-5.5 -14.2,-8.4 -0.02,-1.48 -0.03,-2.95 -0.04,-4.42 z"
         inkscape:connector-curvature="0"
         style="fill:#111111" />
      <path
         id="path3179"
         d="m 13.52,165.47 c 5.66,-3.77 11.03,-7.96 16.73,-11.66 0.01,1.63 0.01,3.26 -0.01,4.89 -4.45,2.95 -8.7,6.2 -13.32,8.87 4.62,3 9.33,5.87 14.08,8.67 0,1.56 0,3.12 0,4.69 -4.83,-3.15 -9.66,-6.31 -14.48,-9.47 -4.47,-3.61 -10.47,-1.06 -15.65,-1.39 0.03,-1.38 0.06,-2.75 0.09,-4.13 4.18,-0.08 8.43,0.15 12.56,-0.47 z"
         inkscape:connector-curvature="0"
         style="fill:#111111" />
      <path
         id="path3181"
         d="m 14.25,192.24 c 4.66,-1.11 10.03,-1.4 14.22,1.33 7.93,4.82 8.43,18.27 0.45,23.31 -7.21,4.99 -19.38,4.3 -23.35,-4.47 -4.36,-7.62 0.22,-18.02 8.68,-20.17 m 3.3,3.47 c -4.17,0.5 -8.3,3.03 -9.68,7.16 -1.83,4.75 1.09,10.64 5.86,12.32 4.62,1.69 10.15,0.56 14.01,-2.41 4.29,-3.15 4.57,-9.95 1.21,-13.87 -2.62,-3.38 -7.44,-4.18 -11.4,-3.2 z"
         inkscape:connector-curvature="0"
         style="fill:#111111" />
      <path
         id="path3183"
         d="m 586.06,199.79 c 1.09,0.22 2.19,0.45 3.29,0.69 -0.82,5.3 -2.01,10.52 -2.78,15.83 3.01,0.56 6.02,1.11 9.04,1.64 0.58,-4.58 1.51,-9.11 2.46,-13.62 0.82,0.17 2.47,0.52 3.3,0.7 -0.67,4.57 -1.67,9.08 -2.42,13.63 4.42,0.7 8.83,1.55 13.23,2.43 -0.23,1.29 -0.45,2.58 -0.68,3.87 -9.71,-1.85 -19.44,-3.61 -29.16,-5.41 1.16,-6.6 2.29,-13.21 3.72,-19.76 z"
         inkscape:connector-curvature="0"
         style="fill:#111111" />
      <path
         id="path3185"
         d="m 8.18,226.5 c 9.6,-2.17 19.02,-5.06 28.66,-7.06 1.72,6.47 3.43,12.95 4.88,19.49 -0.89,0.09 -2.66,0.28 -3.54,0.37 -1.02,-5.14 -2.61,-10.14 -3.71,-15.26 -2.96,0.68 -5.9,1.42 -8.84,2.16 1,4.61 2.25,9.16 3.45,13.72 -1.25,0.14 -2.5,0.28 -3.75,0.43 -0.89,-4.49 -2,-8.94 -3.37,-13.3 -4.24,1.31 -8.57,2.3 -12.89,3.31 -0.3,-1.29 -0.6,-2.57 -0.89,-3.86 z"
         inkscape:connector-curvature="0"
         style="fill:#111111" />
      <path
         id="path3187"
         d="m 586.42,225.55 c 6.49,-1.91 14.23,0.19 18.63,5.42 5.52,6.81 2.51,18.26 -5.58,21.56 -7.18,2.7 -16.49,0.13 -20.57,-6.56 -4.51,-7.16 -0.5,-17.84 7.52,-20.42 m 0.75,3.74 c -6.8,2.24 -8.98,12.3 -3.28,16.84 4.36,2.94 10.49,5.12 15.44,2.3 5.15,-2.6 6.72,-10.27 2.95,-14.65 -3.62,-4.3 -9.79,-5.53 -15.11,-4.49 z"
         inkscape:connector-curvature="0"
         style="fill:#111111" />
      <path
         id="path3189"
         d="m 17.81,261.11 c 9.27,-3.63 18.43,-7.63 27.89,-10.74 0.39,1.18 0.78,2.35 1.2,3.52 -3.77,1.47 -7.51,2.99 -11.28,4.45 1.82,4.74 3.64,9.48 5.56,14.18 3.79,-1.25 7.4,-2.97 11.2,-4.2 0.87,0.96 1.08,2.38 1.69,3.52 -9.21,3.57 -18.35,7.32 -27.61,10.75 -0.61,-1.14 -1.14,-2.31 -1.7,-3.46 4.34,-1.88 8.81,-3.41 13.14,-5.29 -1.94,-4.49 -3.55,-9.11 -5.4,-13.63 -4.56,0.25 -8.76,3.21 -13.17,4.54 -0.5,-1.22 -1.01,-2.43 -1.52,-3.64 z"
         inkscape:connector-curvature="0"
         style="fill:#111111" />
      <path
         id="path3191"
         d="m 568.94,262.76 c 0.54,-1.21 1.05,-2.44 1.58,-3.65 9.1,3.84 18.12,7.83 27.23,11.66 -0.68,1.43 -0.74,3.81 -2.72,4.05 -8.71,1.49 -17.36,3.29 -26.08,4.7 6.83,3.54 14.21,5.92 21.04,9.45 -0.4,1.12 -0.81,2.24 -1.23,3.35 -9.26,-3.71 -18.35,-7.87 -27.54,-11.76 0.58,-1.22 1.17,-2.43 1.78,-3.63 8.9,-2.06 18.09,-2.88 26.86,-5.44 -7.06,-2.72 -13.81,-6.16 -20.92,-8.73 z"
         inkscape:connector-curvature="0"
         style="fill:#111111" />
      <path
         id="path3193"
         d="m 28.4,287.2 c 8.84,-4.34 17.72,-8.63 26.45,-13.2 3.33,6.31 6.66,12.65 9.54,19.18 -0.74,0.42 -2.21,1.26 -2.95,1.69 -2.81,-5.12 -5.31,-10.4 -7.83,-15.67 -2.73,1.32 -5.47,2.63 -8.05,4.23 2.41,4.85 4.87,9.67 7.24,14.53 -1.22,0.23 -3.39,2.36 -3.91,0.06 -2.16,-4.38 -4.41,-8.71 -6.46,-13.14 -3.06,1.36 -6.05,2.89 -9.01,4.46 2.59,5.48 5.6,10.76 7.96,16.35 -1.06,0.46 -2.11,0.92 -3.17,1.4 -3.1,-6.71 -6.61,-13.23 -9.81,-19.89 z"
         inkscape:connector-curvature="0"
         style="fill:#111111" />
      <path
         id="path3195"
         d="m 562.2,287.2 c 9.31,-1.89 20.73,5.72 19.88,15.86 -0.23,4.02 -2.34,7.94 -5.48,10.45 -9.21,7.32 -25.29,-0.66 -25.13,-12.41 0.16,-6.27 4.53,-12.37 10.73,-13.9 m -0.86,4.23 c -4.63,1.75 -7.3,7.32 -6,12.05 1.47,4 5.25,6.6 9.04,8.19 6.54,3.49 14.87,-2.57 14.27,-9.75 -1.22,-7.56 -10.14,-12.58 -17.31,-10.49 z"
         inkscape:connector-curvature="0"
         style="fill:#111111" />
      <path
         id="path3197"
         d="m 38.68,308.12 c 10.39,-1.93 20.77,-4 31.21,-5.65 0.93,1.05 1.65,2.25 2.26,3.51 -6.18,8.6 -12.59,17.04 -18.76,25.65 -0.92,-1.15 -1.84,-2.3 -2.55,-3.59 1.75,-2.69 3.83,-5.14 5.82,-7.66 -2.02,-3.5 -4.25,-6.87 -6.21,-10.41 -3.22,0.21 -6.34,1.07 -9.5,1.67 -0.76,-1.18 -1.51,-2.35 -2.27,-3.52 m 15.09,1.03 c 1.58,2.76 3.3,5.44 4.86,8.22 3.34,-3.49 6.03,-7.52 9.12,-11.2 -4.62,1.16 -9.35,1.84 -13.98,2.98 z"
         inkscape:connector-curvature="0"
         style="fill:#111111" />
      <path
         id="path3199"
         d="m 542.78,312.7 c 0.74,-1.1 1.48,-2.21 2.24,-3.3 8.34,5.3 16.56,10.77 24.9,16.08 -0.74,1.13 -1.48,2.27 -2.2,3.41 -8.31,-5.4 -16.6,-10.84 -24.94,-16.19 z"
         inkscape:connector-curvature="0"
         style="fill:#111111" />
      <path
         id="path3201"
         d="m 54.41,333.17 c 8.08,-5.76 16.06,-11.64 24.15,-17.38 0.71,1.07 1.43,2.13 2.14,3.21 -6.86,5.32 -14.08,10.16 -21.01,15.4 2.77,3.96 5.62,7.86 8.5,11.74 -0.97,0.71 -1.94,1.42 -2.91,2.14 -3.68,-4.99 -7.35,-10 -10.87,-15.11 z"
         inkscape:connector-curvature="0"
         style="fill:#111111" />
      <path
         id="path3203"
         d="m 538.65,319.06 c 0.73,-1.05 1.48,-2.09 2.23,-3.13 7.95,5.91 15.95,11.78 23.88,17.73 -1.25,1.01 -1.76,3.88 -3.81,3.32 -8.63,-1.03 -17.34,-0.76 -25.99,-1.37 5.78,4.94 12.12,9.19 18.23,13.71 -0.79,1 -1.57,2.02 -2.34,3.04 -8.11,-5.72 -15.97,-11.79 -23.97,-17.65 0.78,-1 1.56,-2 2.35,-3 9.3,-0.04 18.57,0.85 27.86,1.14 -6.07,-4.7 -12.3,-9.19 -18.44,-13.79 z"
         inkscape:connector-curvature="0"
         style="fill:#111111" />
      <path
         id="path3205"
         d="m 85.01,331.01 c 0.25,-1.19 1.67,-1.62 2.44,-2.45 5.03,6.03 10.08,12.04 15.01,18.14 -0.68,0.58 -2.05,1.74 -2.74,2.32 -1.96,-2.58 -4.11,-5.01 -6.21,-7.47 -6.83,5.39 -13.33,11.18 -20.17,16.53 -0.86,-0.97 -1.66,-1.98 -2.47,-2.99 6.63,-5.63 13.34,-11.16 20.05,-16.69 -1.9,-2.52 -4.13,-4.78 -5.91,-7.39 z"
         inkscape:connector-curvature="0"
         style="fill:#111111" />
      <path
         id="path3207"
         d="m 522.88,339.55 c 0.92,-1.07 1.85,-2.14 2.8,-3.18 4.63,4.35 9.56,8.38 14.15,12.78 2.55,2.45 4.89,5.94 4.05,9.64 -1.2,4.59 -4.59,8.7 -9.03,10.45 -4.1,2.05 -8.41,-0.98 -11.53,-3.51 -4.35,-4.12 -9.14,-7.77 -13.26,-12.13 0.84,-0.93 1.67,-1.85 2.5,-2.78 5.65,4.49 10.52,9.94 16.43,14.1 4.61,3.12 9.12,-1.8 11.08,-5.68 0.47,-3.11 -1.29,-5.76 -3.53,-7.71 -4.6,-3.94 -8.86,-8.27 -13.66,-11.98 z"
         inkscape:connector-curvature="0"
         style="fill:#111111" />
      <path
         id="path3209"
         d="m 82.14,368.4 c 6.97,-6.91 13.76,-14.02 20.9,-20.76 1.15,0.82 2.12,1.86 3.12,2.85 -2.95,2.76 -5.92,5.48 -8.79,8.32 3.55,3.66 7.14,7.27 10.82,10.8 3.03,-2.64 5.82,-5.53 8.63,-8.39 0.94,0.91 1.87,1.83 2.8,2.77 -6.93,7.16 -14.19,14 -21.22,21.06 -0.89,-1.01 -1.8,-2 -2.69,-3 3.26,-3.28 6.57,-6.5 9.78,-9.84 -3.56,-3.61 -7.1,-7.24 -10.65,-10.85 -3.26,3.31 -6.54,6.6 -9.85,9.85 -0.95,-0.94 -1.9,-1.88 -2.85,-2.81 z"
         inkscape:connector-curvature="0"
         style="fill:#111111" />
      <path
         id="path3211"
         d="m 484.89,376.44 c 5.63,-4.3 10.65,-9.32 16.17,-13.76 1.2,0.67 3.21,2.49 1.25,3.61 -3.96,3.46 -7.96,6.87 -11.88,10.38 1.91,2.3 3.82,4.62 5.96,6.73 4.09,-3.55 8.04,-7.28 12.28,-10.65 0.75,0.92 1.51,1.86 2.26,2.8 -4.15,3.34 -8.14,6.9 -12.08,10.48 1.67,2.85 4.2,5.1 6.34,7.61 4.49,-3.96 9.12,-7.78 13.5,-11.88 0.87,0.9 1.73,1.82 2.59,2.75 -5.67,4.77 -11.21,9.67 -16.79,14.54 -6.52,-7.56 -13.16,-14.99 -19.6,-22.61 z"
         inkscape:connector-curvature="0"
         style="fill:#111111" />
      <path
         id="path3213"
         d="m 131.78,379.07 c 0.53,-0.99 1.16,-1.92 1.89,-2.78 6.29,4.59 12.52,9.28 18.75,13.97 -0.61,0.99 -1.22,1.98 -1.82,2.98 -2.75,-1.88 -5.36,-3.93 -8.06,-5.87 -5.26,6.95 -10.42,13.98 -15.66,20.95 -1.05,-0.9 -2.09,-1.79 -3.12,-2.71 5.28,-6.78 10.5,-13.64 15.37,-20.71 -2.31,-2.11 -5.2,-3.55 -7.35,-5.83 z"
         inkscape:connector-curvature="0"
         style="fill:#111111" />
      <path
         id="path3215"
         d="m 479.85,380.35 c 1.12,-0.72 2.23,-1.44 3.35,-2.16 5.8,7.98 11.72,15.88 17.4,23.95 -1.08,0.77 -2.14,1.53 -3.21,2.29 -2.81,-3.69 -5.38,-7.56 -8.28,-11.17 -4.07,3 -8.15,5.97 -12.25,8.92 2.66,3.91 5.59,7.62 8.29,11.5 -1.15,0.69 -2.3,1.38 -3.44,2.08 -5.76,-7.94 -11.6,-15.83 -17.27,-23.83 0.92,-0.83 1.86,-1.65 2.8,-2.46 2.74,3.01 4.98,6.43 7.3,9.76 4.39,-2.61 8.2,-6.06 12.5,-8.8 -2.24,-3.47 -4.81,-6.71 -7.19,-10.08 z"
         inkscape:connector-curvature="0"
         style="fill:#111111" />
      <path
         id="path3217"
         d="m 153.31,390.82 c 1.15,0.73 2.3,1.45 3.45,2.19 -2.08,3.48 -4.43,6.81 -6.2,10.46 4.36,2.54 8.53,5.4 12.98,7.81 2.1,-3.47 4.15,-6.97 6.39,-10.35 1.09,0.71 2.14,1.47 3.18,2.27 -5.07,8.46 -10.32,16.82 -15.49,25.21 -1.11,-0.73 -2.21,-1.46 -3.31,-2.19 2.34,-3.91 4.75,-7.78 7.15,-11.65 -4.17,-3 -8.63,-5.56 -13.05,-8.13 -2.32,4.03 -4.85,7.94 -7.28,11.91 -1.1,-0.75 -2.21,-1.46 -3.24,-2.28 5,-8.5 10.44,-16.73 15.42,-25.25 z"
         inkscape:connector-curvature="0"
         style="fill:#111111" />
      <path
         id="path3219"
         d="m 443.21,404.64 c 6.71,-4.05 13.38,-8.15 20.14,-12.1 0.76,0.94 1.39,1.99 2.01,3.04 -2.87,1.54 -5.63,3.25 -8.41,4.92 4.44,7.46 8.91,14.9 13.42,22.32 -1.11,0.74 -2.22,1.47 -3.33,2.21 -4.59,-7.3 -8.76,-14.87 -13.45,-22.1 -3.03,0.82 -5.45,3.09 -8.1,4.68 -0.78,-0.98 -1.54,-1.97 -2.28,-2.97 z"
         inkscape:connector-curvature="0"
         style="fill:#111111" />
      <path
         id="path3221"
         d="m 161.93,430.76 c 4.69,-8.73 8.69,-17.82 13.51,-26.47 6.31,3.16 12.79,6.07 18.9,9.61 -0.24,1.18 -0.99,2.18 -1.57,3.22 -5.09,-2.81 -10.35,-5.27 -15.54,-7.87 -1.36,2.67 -2.72,5.34 -3.93,8.08 4.85,2.42 9.74,4.76 14.54,7.28 -0.44,0.71 -1.32,2.14 -1.76,2.85 -4.99,-1.98 -9.54,-4.88 -14.51,-6.92 -1.46,2.93 -2.94,5.86 -4.35,8.83 5.4,2.66 10.72,5.5 16.21,8 -0.56,1.11 -1.15,2.21 -1.76,3.3 -6.51,-3.44 -13.12,-6.69 -19.74,-9.91 z"
         inkscape:connector-curvature="0"
         style="fill:#111111" />
      <path
         id="path3223"
         d="m 417.64,416.86 c 5.92,-2.89 12.02,-5.42 17.92,-8.37 0.62,1.05 1.22,2.1 1.83,3.17 -4.87,2.21 -9.68,4.53 -14.56,6.68 1.13,2.81 2.38,5.58 3.68,8.32 4.2,-1.87 8.34,-3.85 12.54,-5.72 0.61,1 1.12,2.05 1.55,3.16 -4.16,2.04 -8.46,3.81 -12.59,5.92 1.83,3.96 3.87,7.85 5.41,11.94 -0.98,0.83 -2.11,1.45 -3.38,1.86 -4.15,-8.98 -8.3,-17.96 -12.4,-26.96 z"
         inkscape:connector-curvature="0"
         style="fill:#111111" />
      <path
         id="path3225"
         d="m 205.93,418.72 c 5.39,2.08 11.04,3.53 16.25,6.04 4.76,2.3 5.18,9.35 1.32,12.67 -2.12,2.3 -5.42,1.78 -8.21,1.82 3.62,4.54 3.98,10.6 5.27,16.05 -1.5,-0.5 -2.99,-1 -4.49,-1.46 -1.2,-4.49 -1.84,-9.15 -3.59,-13.47 -1.58,-3.08 -5.35,-3.58 -8.29,-4.65 -1.59,4.05 -3.02,8.17 -4.33,12.32 -1.31,-0.44 -2.63,-0.86 -3.96,-1.23 3.49,-9.31 6.51,-18.8 10.03,-28.09 m 2.58,4.42 c -1.08,3.05 -2.11,6.12 -3.26,9.15 3.88,1.24 7.61,3.26 11.7,3.71 4.12,0.57 7.06,-5.83 3.26,-8.2 -3.53,-2.32 -7.85,-3.03 -11.7,-4.66 z"
         inkscape:connector-curvature="0"
         style="fill:#111111" />
      <path
         id="path3227"
         d="m 404.42,421.47 c 5.82,-1.6 12.23,1.85 14.92,7.12 2.04,4.02 3.6,8.85 2.02,13.3 -2.23,8.89 -14.46,13.14 -21.68,7.45 -6.78,-5.21 -9.44,-16.47 -3.57,-23.28 2.07,-2.53 5.18,-3.91 8.31,-4.59 m -1.21,3.86 c -3.41,1.4 -6.61,4.72 -6.22,8.65 -0.24,5.35 2.21,11.43 7.34,13.72 5.35,2.28 12.1,-1.17 13.42,-6.81 0.79,-4.1 -0.63,-8.36 -2.91,-11.75 -2.38,-3.77 -7.47,-5.53 -11.63,-3.81 z"
         inkscape:connector-curvature="0"
         style="fill:#111111" />
      <path
         id="path3229"
         d="m 230.14,427.01 c 6.97,1.86 13.96,3.72 21,5.31 -0.45,1.16 -0.9,2.33 -1.35,3.5 -5.5,-1.57 -11.06,-2.93 -16.63,-4.2 -0.79,2.84 -1.47,5.71 -2.31,8.54 5.29,1.46 10.6,2.87 15.97,4.03 -0.24,0.85 -0.72,2.54 -0.96,3.39 -5.29,-1.09 -10.46,-2.71 -15.76,-3.8 -0.99,3.2 -1.9,6.45 -2.25,9.8 5.86,1.2 11.61,2.87 17.4,4.38 -0.32,1.13 -0.64,2.25 -0.97,3.37 -7.14,-1.88 -14.3,-3.67 -21.45,-5.5 2.47,-9.6 4.97,-19.19 7.31,-28.82 z"
         inkscape:connector-curvature="0"
         style="fill:#111111" />
      <path
         id="path3231"
         d="m 358.92,437.98 c 4.55,-8.06 18.46,-9.21 22.64,-0.15 -1.31,0.55 -2.63,1.07 -4,1.43 -2.62,-6 -11.49,-5.42 -14.79,-0.4 -3.09,4.7 -1.53,10.86 1,15.45 2.28,4.49 8.58,5.75 12.66,2.98 2.98,-1.52 3.58,-5.06 4.19,-8.01 1.27,0.1 2.55,0.21 3.83,0.34 -0.19,4.3 -2.19,8.95 -6.3,10.82 -5.18,2.64 -12.49,2.58 -16.41,-2.24 -4.43,-5.52 -6.42,-13.77 -2.82,-20.22 z"
         inkscape:connector-curvature="0"
         style="fill:#111111" />
      <path
         id="path3233"
         d="m 253.3,433.18 c 2.59,-0.39 5.17,0.76 7.76,0.95 4.38,0.9 10.01,0.84 12.51,5.25 1.94,4.51 0.31,9.97 -3.84,12.64 -5.18,0.75 -10.33,-0.25 -15.42,-1.08 -0.46,3.97 -1.2,7.9 -1.87,11.84 -0.95,-0.19 -2.84,-0.57 -3.79,-0.76 1.4,-9.64 3.17,-19.22 4.65,-28.84 m 1.77,13.83 c 0.79,1.19 2.76,0.6 4,1.1 3.12,0.41 6.77,1.88 9.53,-0.35 1.67,-1.54 2.38,-4.36 1.24,-6.39 -2.91,-4.28 -8.72,-3.05 -13.06,-4.45 -0.62,3.35 -1.27,6.71 -1.71,10.09 z"
         inkscape:connector-curvature="0"
         style="fill:#111111" />
      <path
         id="path3235"
         d="m 347.53,436.04 c 0.9,-0.19 2.7,-0.56 3.61,-0.75 1.52,9.9 3.22,19.82 4.1,29.8 -1.3,0.03 -2.56,-0.07 -3.81,-0.31 -1.2,-9.59 -2.92,-19.12 -3.9,-28.74 z"
         inkscape:connector-curvature="0"
         style="fill:#111111" />
      <path
         id="path3237"
         d="m 277.02,436.85 c 1.35,0.04 2.72,0.09 4.08,0.14 -0.53,6.95 -1.37,13.92 -1.37,20.89 -0.04,7.43 13.02,8.79 14.71,1.73 1.36,-7.1 1.31,-14.39 1.98,-21.57 1.29,0.17 2.58,0.33 3.88,0.5 -0.15,6.21 -1.08,12.36 -1.32,18.56 -0.27,4.27 -2.46,8.98 -6.96,10.07 -4.75,0.96 -10.66,0.76 -14.13,-3.1 -2.48,-2.77 -2.05,-6.63 -2.01,-10.06 0,-5.75 1.22,-11.41 1.14,-17.16 z"
         inkscape:connector-curvature="0"
         style="fill:#111111" />
      <path
         id="path3239"
         d="m 302.87,438.86 c 5.22,-0.81 10.82,-0.85 16.02,0.26 5.68,1.83 6.09,10.21 1.11,13.15 6.32,1.7 6.84,11.07 1.49,14.19 -5.72,2.96 -12.4,1.41 -18.56,1.61 0.08,-9.74 -0.53,-19.48 -0.06,-29.21 m 3.45,3.14 c 0.31,2.96 0.31,5.95 0.36,8.93 4.01,-0.42 9.13,1.37 12.15,-2.13 1.81,-1.51 0.31,-3.72 -0.13,-5.47 -3.7,-2.36 -8.27,-0.94 -12.38,-1.33 m 0.34,12.34 c -0.06,3.47 -0.22,6.96 0.22,10.42 3.93,-0.12 8.05,0.38 11.8,-1.11 3.02,-1.75 3.24,-6.66 0.13,-8.41 -3.81,-1.73 -8.12,-0.76 -12.15,-0.9 z"
         inkscape:connector-curvature="0"
         style="fill:#111111" />
      <path
         id="path3241"
         d="m 326.86,438.01 c 0.92,-0.07 2.77,-0.2 3.69,-0.27 1.15,8.69 1.38,17.48 2.67,26.17 4.69,-1 9.5,-0.92 14.25,-1.47 0.2,1.17 0.41,2.35 0.62,3.54 -6.27,0.15 -12.45,1.27 -18.72,1.46 -0.72,-9.82 -1.95,-19.6 -2.51,-29.43 z"
         inkscape:connector-curvature="0"
         style="fill:#111111" />
    </g>
  </g>
</svg>
